<?xml version="1.0" encoding="UTF-8" standalone="no"?>
<svg width="194.46" height="52.321" viewBox="0 0 194.46 52.321" xmlns="http://www.w3.org/2000/svg"><g id="svgGroup" stroke-linecap="round" fill-rule="evenodd" font-size="9pt" stroke="#ffffff" stroke-width="0.25mm" fill="#ffffff" style="stroke:#ffffff;stroke-width:0.25mm;fill:#ffffff"><path d="M 88.26 17.52 L 89.94 12.9 A 14.901 14.901 0 0 0 90.708 9.909 A 12.645 12.645 0 0 0 90.84 8.1 L 90.84 7.86 Q 90.84 7.318 90.738 7.15 A 0.15 0.15 0 0 0 90.66 7.08 A 0.239 0.239 0 0 0 90.577 7.031 Q 90.43 6.974 90.092 6.963 A 5.447 5.447 0 0 0 89.91 6.96 A 1.998 1.998 0 0 1 89.704 6.95 Q 89.496 6.929 89.39 6.858 A 0.227 0.227 0 0 1 89.28 6.66 Q 89.28 6.157 90.112 6.123 A 3.074 3.074 0 0 1 90.24 6.12 A 7.525 7.525 0 0 1 91.63 6.237 Q 93.94 6.673 94.072 8.744 A 4.038 4.038 0 0 1 94.08 9 A 3.648 3.648 0 0 1 93.953 9.779 Q 93.405 12.034 90.48 19.2 Q 92.52 16.32 96.54 12.06 A 78.24 78.24 0 0 1 97.933 10.619 Q 100.796 7.74 101.58 7.74 Q 101.58 8.138 101.251 8.535 A 2.388 2.388 0 0 1 101.1 8.7 A 11.99 11.99 0 0 1 102.024 8.815 Q 103.437 9.053 103.836 9.581 A 0.755 0.755 0 0 1 103.98 9.9 Q 104.1 10.68 104.16 11.34 A 17.199 17.199 0 0 1 104.197 11.81 Q 104.211 12.041 104.217 12.245 A 8.736 8.736 0 0 1 104.22 12.48 A 22.665 22.665 0 0 1 103.833 16.443 Q 103.102 20.533 100.989 25.922 A 88.589 88.589 0 0 1 100.26 27.72 A 73.27 73.27 0 0 1 95.165 37.652 A 56.851 56.851 0 0 1 89.64 45.18 Q 84.973 50.52 81.279 51.866 A 6.945 6.945 0 0 1 78.9 52.32 A 5.816 5.816 0 0 1 77.357 52.133 Q 74.94 51.467 74.94 48.42 A 8.972 8.972 0 0 1 75.538 45.382 Q 76.953 41.478 81.72 36.12 A 64.614 64.614 0 0 1 91.308 27.225 A 55.434 55.434 0 0 1 97.14 23.4 A 0.086 0.086 0 0 1 97.164 23.403 Q 97.19 23.411 97.197 23.438 A 0.088 0.088 0 0 1 97.2 23.46 Q 97.2 23.721 96.701 24.299 A 8.056 8.056 0 0 1 96.54 24.48 A 189.69 189.69 0 0 0 89.648 30.473 Q 79.39 39.877 76.992 45.653 A 8.417 8.417 0 0 0 76.26 48.84 A 5.339 5.339 0 0 0 76.354 49.891 Q 76.723 51.72 78.54 51.72 A 5.563 5.563 0 0 0 81.127 51 Q 84.154 49.404 87.883 44.267 A 53.692 53.692 0 0 0 87.96 44.16 Q 90.84 40.2 93.18 35.94 Q 95.52 31.68 97.38 27.06 A 95.692 95.692 0 0 0 98.726 23.62 Q 99.731 20.888 100.35 18.6 Q 101.236 15.326 101.329 12.628 A 18.156 18.156 0 0 0 101.34 12 Q 101.34 10.336 100.888 9.501 A 1.87 1.87 0 0 0 100.62 9.12 A 131.588 131.588 0 0 0 96.305 13.839 Q 92.264 18.498 90.047 22.153 A 32.131 32.131 0 0 0 89.46 23.16 A 14.264 14.264 0 0 1 89.104 24.016 Q 88.535 25.261 88.009 25.574 A 0.678 0.678 0 0 1 87.66 25.68 A 4.486 4.486 0 0 1 87.048 25.642 Q 85.86 25.478 85.86 24.6 A 1.055 1.055 0 0 1 85.882 24.415 Q 85.971 23.945 86.417 22.676 A 54.301 54.301 0 0 1 86.49 22.47 Q 86.972 21.115 87.754 18.933 A 4557.173 4557.173 0 0 1 88.26 17.52 Z M 110.4 15 L 111.78 12.66 A 25.516 25.516 0 0 1 112.86 10.963 Q 113.423 10.156 113.985 9.509 A 12.307 12.307 0 0 1 114.66 8.79 A 5.433 5.433 0 0 1 115.831 7.904 A 4.098 4.098 0 0 1 117.84 7.38 L 117.96 7.38 Q 120.339 7.38 120.667 10.143 A 8.123 8.123 0 0 1 120.72 11.1 Q 120.72 12.532 120.228 14.783 A 35.745 35.745 0 0 1 120.18 15 Q 119.64 17.4 118.5 20.7 L 126.72 11.82 A 3.367 3.367 0 0 1 127.605 11.477 Q 127.996 11.383 128.452 11.353 A 6.628 6.628 0 0 1 128.88 11.34 Q 130.26 11.34 130.26 11.88 Q 128.479 16.689 128.02 19.582 A 11.494 11.494 0 0 0 127.86 21.36 A 11.908 11.908 0 0 0 127.89 22.246 Q 127.993 23.621 128.45 24.019 A 0.635 0.635 0 0 0 128.88 24.18 L 129.3 22.86 A 1.741 1.741 0 0 1 129.395 23.164 Q 129.467 23.485 129.478 23.95 A 7.244 7.244 0 0 1 129.48 24.12 A 3.792 3.792 0 0 1 129.446 24.65 Q 129.36 25.26 129.051 25.509 A 0.819 0.819 0 0 1 128.52 25.68 A 2.573 2.573 0 0 1 126.063 24.111 Q 125.491 22.953 125.412 20.939 A 16.986 16.986 0 0 1 125.4 20.28 A 19.766 19.766 0 0 1 125.44 19.056 Q 125.492 18.225 125.61 17.28 Q 125.82 15.6 126.24 13.56 A 17.392 17.392 0 0 0 125.031 14.898 A 15.637 15.637 0 0 0 124.83 15.15 Q 124.2 15.96 123.48 16.98 L 120.36 21.36 A 63.718 63.718 0 0 1 119.532 22.51 Q 118.007 24.573 117.4 24.94 A 0.453 0.453 0 0 1 117.18 25.02 A 8.827 8.827 0 0 1 116.539 24.999 Q 115.554 24.927 115.262 24.61 A 0.443 0.443 0 0 1 115.14 24.3 A 0.547 0.547 0 0 1 115.15 24.243 Q 115.212 23.946 115.642 22.14 A 951.128 951.128 0 0 1 115.8 21.48 Q 117.612 14.648 117.86 11.7 A 10.093 10.093 0 0 0 117.9 10.86 A 3.045 3.045 0 0 0 117.873 10.432 Q 117.801 9.934 117.546 9.734 A 0.67 0.67 0 0 0 117.12 9.6 Q 114.9 9.6 111.12 16.14 Q 110.666 16.965 110.142 18.003 A 93.899 93.899 0 0 0 109.65 18.99 Q 108.84 20.64 108.18 22.14 Q 108.06 22.5 107.67 23.34 Q 107.28 24.18 106.92 24.93 A 21.198 21.198 0 0 1 106.835 25.106 Q 106.561 25.662 106.503 25.679 A 0.012 0.012 0 0 1 106.5 25.68 A 2.703 2.703 0 0 1 105.786 25.58 A 3.642 3.642 0 0 1 105.24 25.38 Q 104.71 25.139 104.606 24.821 A 0.513 0.513 0 0 1 104.58 24.66 A 3.356 3.356 0 0 1 104.65 24.096 Q 104.897 22.771 106.025 19.152 A 223.114 223.114 0 0 1 106.56 17.46 A 73.438 73.438 0 0 0 107.426 14.535 Q 108.54 10.44 108.54 8.1 A 1.62 1.62 0 0 0 108.494 7.696 Q 108.343 7.112 107.7 7.02 A 4.678 4.678 0 0 1 107.436 6.975 Q 107.047 6.897 106.921 6.781 A 0.163 0.163 0 0 1 106.86 6.66 A 0.448 0.448 0 0 1 107.127 6.232 Q 107.35 6.12 107.76 6.12 A 7.152 7.152 0 0 1 109.252 6.261 Q 111.444 6.731 111.735 8.762 A 4.641 4.641 0 0 1 111.78 9.42 Q 111.78 10.985 110.493 14.732 A 63.845 63.845 0 0 1 110.4 15 Z M 172.74 12 L 174.72 8.16 Q 175.112 7.425 175.284 7.09 A 13.924 13.924 0 0 0 175.35 6.96 L 175.65 6.36 A 9.744 9.744 0 0 1 175.737 6.191 Q 175.866 5.945 176.098 5.524 A 98.661 98.661 0 0 1 176.25 5.25 Q 176.664 4.504 177.613 2.766 A 1320.315 1320.315 0 0 0 177.78 2.46 Q 178.826 0.63 179.233 0.395 A 0.22 0.22 0 0 1 179.34 0.36 A 2.764 2.764 0 0 1 179.55 0.371 Q 180.12 0.416 181.68 0.66 Q 183.585 0.958 185.963 0.96 A 38.124 38.124 0 0 0 186 0.96 Q 187.2 0.96 188.46 0.87 Q 189.72 0.78 190.92 0.66 Q 192.06 0.546 192.821 0.459 A 69.97 69.97 0 0 0 192.9 0.45 Q 193.568 0.373 193.84 0.362 A 1.995 1.995 0 0 1 193.92 0.36 A 3.803 3.803 0 0 1 194.076 0.363 Q 194.46 0.379 194.46 0.48 Q 194.46 0.66 193.86 1.2 A 10.985 10.985 0 0 1 190.183 3.194 Q 188.591 3.72 186.653 3.934 A 25.69 25.69 0 0 1 183.84 4.08 Q 182.601 4.08 181.711 3.855 A 4.309 4.309 0 0 1 180.84 3.54 L 177.3 8.82 A 19.972 19.972 0 0 1 182.232 7.792 A 18.186 18.186 0 0 1 183.6 7.74 A 13.673 13.673 0 0 1 186.108 7.958 Q 187.597 8.236 188.805 8.869 A 8.243 8.243 0 0 1 189.15 9.06 Q 191.4 10.38 191.4 13.2 A 10.753 10.753 0 0 1 188.922 20.067 A 14.209 14.209 0 0 1 188.22 20.88 Q 186.629 22.625 185.104 23.712 A 13.275 13.275 0 0 1 184.59 24.06 Q 182.82 25.2 180.78 26.04 A 31.584 31.584 0 0 1 178.497 26.869 A 24.099 24.099 0 0 1 176.61 27.39 A 17.898 17.898 0 0 1 173.17 27.829 A 20.276 20.276 0 0 1 172.5 27.84 A 18.963 18.963 0 0 1 170.391 27.728 A 14.928 14.928 0 0 1 168.87 27.48 Q 167.22 27.12 165.66 26.34 A 8.03 8.03 0 0 1 164.366 25.515 Q 162.78 24.252 162.78 22.56 Q 162.78 22.169 162.933 22.032 A 0.3 0.3 0 0 1 163.14 21.96 Q 165.66 26.46 170.46 26.46 A 11.847 11.847 0 0 0 172.975 26.166 Q 175.363 25.645 178.333 24.203 A 37.952 37.952 0 0 0 178.38 24.18 Q 180.66 23.04 182.67 21.69 Q 184.68 20.34 186.36 18.66 Q 189.72 15.3 189.72 12.66 Q 189.72 9.923 185.142 9.734 A 17.078 17.078 0 0 0 184.44 9.72 A 11.854 11.854 0 0 0 181.61 10.086 Q 180.284 10.413 178.84 11.03 A 25.571 25.571 0 0 0 176.94 11.94 A 4.856 4.856 0 0 0 176.105 12.516 A 6.62 6.62 0 0 0 175.44 13.17 Q 174.72 13.98 174.42 13.98 A 0.403 0.403 0 0 1 174.256 13.937 Q 174.011 13.825 173.608 13.418 A 8.458 8.458 0 0 1 173.4 13.2 A 7.984 7.984 0 0 1 173.144 12.857 Q 172.795 12.359 172.747 12.081 A 0.488 0.488 0 0 1 172.74 12 Z M 53.82 6.66 L 53.4 6.66 A 2.418 2.418 0 0 0 52.244 7.016 Q 50.37 8.062 47.46 12.18 A 42.462 42.462 0 0 0 45.871 14.598 Q 44.418 16.997 43.903 18.767 A 6.339 6.339 0 0 0 43.62 20.52 A 4.076 4.076 0 0 0 43.814 21.836 Q 44.435 23.656 47.032 23.699 A 7.668 7.668 0 0 0 47.16 23.7 Q 49.98 23.7 54.36 20.7 Q 56.52 19.2 58.41 17.37 Q 60.3 15.54 61.92 13.44 A 23.096 23.096 0 0 0 63.515 11.158 Q 65.066 8.6 65.206 6.477 A 6.334 6.334 0 0 0 65.22 6.06 Q 65.22 2.606 59.056 2.165 A 27.211 27.211 0 0 0 57.12 2.1 Q 51.765 2.1 47.706 3.5 A 20.69 20.69 0 0 0 47.1 3.72 L 46.8 3.9 A 0.399 0.399 0 0 1 46.737 3.895 Q 46.625 3.877 46.62 3.789 A 0.151 0.151 0 0 1 46.62 3.78 A 3.591 3.591 0 0 1 47.621 2.615 Q 48.593 1.853 50.28 1.329 A 15.641 15.641 0 0 1 50.94 1.14 A 29.47 29.47 0 0 1 55.248 0.367 A 24.674 24.674 0 0 1 57.72 0.24 A 10.958 10.958 0 0 1 63.154 1.707 A 13.857 13.857 0 0 1 64.26 2.4 A 9.698 9.698 0 0 1 65.4 3.266 Q 66.264 4.036 66.72 4.89 Q 67.44 6.24 67.44 7.8 Q 67.44 9.18 66.93 10.71 Q 66.42 12.24 65.46 13.8 Q 63.48 17.16 60.6 19.89 Q 57.72 22.62 54.3 24.48 A 14.069 14.069 0 0 1 52.554 25.399 A 11.429 11.429 0 0 1 51.21 25.89 A 11.378 11.378 0 0 1 49.536 26.254 A 9.157 9.157 0 0 1 48.3 26.34 A 7.956 7.956 0 0 1 46.011 26.024 A 6.449 6.449 0 0 1 43.59 24.69 A 5.316 5.316 0 0 1 41.709 20.818 A 6.787 6.787 0 0 1 41.7 20.46 Q 41.7 17.603 44.207 12.926 A 49.331 49.331 0 0 1 45.42 10.8 Q 49.08 4.62 51.9 4.62 A 1.502 1.502 0 0 1 52.382 4.696 A 1.385 1.385 0 0 1 52.56 4.77 Q 52.86 4.92 53.46 5.34 A 5.862 5.862 0 0 1 53.95 5.652 A 4.852 4.852 0 0 1 54.21 5.85 A 1.233 1.233 0 0 1 54.373 6.009 Q 54.54 6.207 54.54 6.42 A 0.16 0.16 0 0 1 54.453 6.558 Q 54.316 6.644 53.963 6.657 A 3.675 3.675 0 0 1 53.82 6.66 Z M 4.56 16.62 L 1.86 17.34 L 1.32 17.46 A 0.341 0.341 0 0 1 1.147 17.404 Q 0.933 17.275 0.643 16.853 A 6.071 6.071 0 0 1 0.51 16.65 A 5.077 5.077 0 0 1 0.263 16.216 Q 0.039 15.766 0.006 15.418 A 1.242 1.242 0 0 1 0 15.3 A 2.014 2.014 0 0 1 0.133 14.626 Q 0.471 13.685 1.668 12.314 A 18.497 18.497 0 0 1 1.68 12.3 A 19.029 19.029 0 0 1 2.906 11.036 Q 4.231 9.779 6.184 8.293 A 65.096 65.096 0 0 1 6.84 7.8 L 12.84 3.3 L 14.4 0.84 A 0.233 0.233 0 0 1 14.537 0.645 Q 14.914 0.42 16.32 0.42 Q 18.048 0.42 18.171 1.663 A 2.008 2.008 0 0 1 18.18 1.86 Q 18.18 2.1 16.77 3.39 Q 15.69 4.378 13.714 5.91 A 126.62 126.62 0 0 1 12.42 6.9 L 10.98 7.98 Q 7.53 12.739 7.5 12.308 A 0.115 0.115 0 0 1 7.5 12.3 A 0.493 0.493 0 0 1 7.544 12.15 Q 7.744 11.661 8.845 9.802 A 129.958 129.958 0 0 1 9 9.54 Q 7.26 10.86 5.79 12.03 Q 4.32 13.2 3.12 14.22 A 68.962 68.962 0 0 1 7.502 13.399 A 60.433 60.433 0 0 1 8.91 13.2 Q 11.7 12.84 14.28 12.84 L 15.6 12.84 L 18.18 7.02 A 71.931 71.931 0 0 0 18.812 5.53 Q 19.738 3.272 19.966 2.162 A 3.102 3.102 0 0 0 20.04 1.56 Q 20.04 1.213 19.567 0.894 A 2.351 2.351 0 0 0 19.53 0.87 A 12.19 12.19 0 0 1 19.41 0.792 Q 19.024 0.535 19.02 0.481 A 0.015 0.015 0 0 1 19.02 0.48 Q 19.17 0.081 19.943 0.014 A 3.917 3.917 0 0 1 20.28 0 Q 20.688 0 21.204 0.108 A 7.08 7.08 0 0 1 21.39 0.15 Q 22.02 0.3 22.56 0.66 A 2.389 2.389 0 0 1 23.152 1.112 A 1.816 1.816 0 0 1 23.64 2.4 A 1.509 1.509 0 0 1 23.618 2.628 Q 23.559 3.006 23.334 3.725 A 25.046 25.046 0 0 1 23.19 4.17 A 17.648 17.648 0 0 1 22.853 5.087 Q 22.45 6.104 21.812 7.43 A 57.333 57.333 0 0 1 21.72 7.62 L 19.08 13.26 A 4.257 4.257 0 0 1 20.352 13.696 A 5.802 5.802 0 0 1 21.21 14.25 Q 22.135 14.964 22.245 15.654 A 1.18 1.18 0 0 1 22.26 15.84 Q 22.26 16.595 21.698 17.35 A 3.999 3.999 0 0 1 21.66 17.4 A 4.566 4.566 0 0 1 21.408 17.681 Q 20.994 18.1 20.698 18.119 A 0.435 0.435 0 0 1 20.67 18.12 A 0.743 0.743 0 0 1 20.528 18.108 Q 20.3 18.063 20.282 17.857 A 0.42 0.42 0 0 1 20.28 17.82 L 21.12 15.6 A 0.427 0.427 0 0 0 20.888 15.234 Q 20.513 14.997 19.53 14.951 A 10.922 10.922 0 0 0 19.02 14.94 L 18.54 14.94 Q 17.998 16.171 17.012 19.422 A 173.651 173.651 0 0 0 16.56 20.94 Q 15.24 25.32 15.24 26.16 A 3.412 3.412 0 0 0 15.269 26.622 Q 15.301 26.854 15.367 27.041 A 1.32 1.32 0 0 0 15.57 27.42 A 6.04 6.04 0 0 1 15.682 27.567 Q 15.896 27.857 15.9 27.957 A 0.092 0.092 0 0 1 15.9 27.96 A 0.07 0.07 0 0 1 15.86 28.019 Q 15.764 28.079 15.431 28.08 A 3.771 3.771 0 0 1 15.42 28.08 A 1.515 1.515 0 0 1 14.08 27.242 Q 13.392 26.096 13.327 23.383 A 24.351 24.351 0 0 1 13.32 22.8 A 20.965 20.965 0 0 1 13.61 19.422 Q 13.877 17.788 14.39 16.009 A 36.368 36.368 0 0 1 14.64 15.18 Q 14.494 15.131 13.992 15.122 A 13.848 13.848 0 0 0 13.74 15.12 Q 10.275 15.12 4.797 16.557 A 73.875 73.875 0 0 0 4.56 16.62 Z M 135 16.62 L 132.3 17.34 L 131.76 17.46 A 0.341 0.341 0 0 1 131.587 17.404 Q 131.373 17.275 131.083 16.853 A 6.071 6.071 0 0 1 130.95 16.65 A 5.077 5.077 0 0 1 130.703 16.216 Q 130.479 15.766 130.446 15.418 A 1.242 1.242 0 0 1 130.44 15.3 A 2.014 2.014 0 0 1 130.573 14.626 Q 130.911 13.685 132.108 12.314 A 18.497 18.497 0 0 1 132.12 12.3 A 19.029 19.029 0 0 1 133.346 11.036 Q 134.671 9.779 136.624 8.293 A 65.096 65.096 0 0 1 137.28 7.8 L 143.28 3.3 L 144.84 0.84 A 0.233 0.233 0 0 1 144.977 0.645 Q 145.354 0.42 146.76 0.42 Q 148.488 0.42 148.611 1.663 A 2.008 2.008 0 0 1 148.62 1.86 Q 148.62 2.1 147.21 3.39 Q 146.13 4.378 144.154 5.91 A 126.62 126.62 0 0 1 142.86 6.9 L 141.42 7.98 Q 137.97 12.739 137.94 12.308 A 0.115 0.115 0 0 1 137.94 12.3 A 0.493 0.493 0 0 1 137.984 12.15 Q 138.184 11.661 139.285 9.802 A 129.958 129.958 0 0 1 139.44 9.54 Q 137.7 10.86 136.23 12.03 Q 134.76 13.2 133.56 14.22 A 68.962 68.962 0 0 1 137.942 13.399 A 60.433 60.433 0 0 1 139.35 13.2 Q 142.14 12.84 144.72 12.84 L 146.04 12.84 L 148.62 7.02 A 71.931 71.931 0 0 0 149.252 5.53 Q 150.178 3.272 150.406 2.162 A 3.102 3.102 0 0 0 150.48 1.56 Q 150.48 1.213 150.007 0.894 A 2.351 2.351 0 0 0 149.97 0.87 A 12.19 12.19 0 0 1 149.85 0.792 Q 149.464 0.535 149.46 0.481 A 0.015 0.015 0 0 1 149.46 0.48 Q 149.61 0.081 150.383 0.014 A 3.917 3.917 0 0 1 150.72 0 Q 151.128 0 151.644 0.108 A 7.08 7.08 0 0 1 151.83 0.15 Q 152.46 0.3 153 0.66 A 2.389 2.389 0 0 1 153.592 1.112 A 1.816 1.816 0 0 1 154.08 2.4 A 1.509 1.509 0 0 1 154.058 2.628 Q 153.999 3.006 153.774 3.725 A 25.046 25.046 0 0 1 153.63 4.17 A 17.648 17.648 0 0 1 153.293 5.087 Q 152.89 6.104 152.252 7.43 A 57.333 57.333 0 0 1 152.16 7.62 L 149.52 13.26 A 4.257 4.257 0 0 1 150.792 13.696 A 5.802 5.802 0 0 1 151.65 14.25 Q 152.575 14.964 152.685 15.654 A 1.18 1.18 0 0 1 152.7 15.84 Q 152.7 16.595 152.138 17.35 A 3.999 3.999 0 0 1 152.1 17.4 A 4.566 4.566 0 0 1 151.848 17.681 Q 151.434 18.1 151.138 18.119 A 0.435 0.435 0 0 1 151.11 18.12 A 0.743 0.743 0 0 1 150.968 18.108 Q 150.74 18.063 150.722 17.857 A 0.42 0.42 0 0 1 150.72 17.82 L 151.56 15.6 A 0.427 0.427 0 0 0 151.328 15.234 Q 150.953 14.997 149.97 14.951 A 10.922 10.922 0 0 0 149.46 14.94 L 148.98 14.94 Q 148.438 16.171 147.452 19.422 A 173.651 173.651 0 0 0 147 20.94 Q 145.68 25.32 145.68 26.16 A 3.412 3.412 0 0 0 145.709 26.622 Q 145.741 26.854 145.807 27.041 A 1.32 1.32 0 0 0 146.01 27.42 A 6.04 6.04 0 0 1 146.122 27.567 Q 146.336 27.857 146.34 27.957 A 0.092 0.092 0 0 1 146.34 27.96 A 0.07 0.07 0 0 1 146.3 28.019 Q 146.204 28.079 145.871 28.08 A 3.771 3.771 0 0 1 145.86 28.08 A 1.515 1.515 0 0 1 144.52 27.242 Q 143.832 26.096 143.767 23.383 A 24.351 24.351 0 0 1 143.76 22.8 A 20.965 20.965 0 0 1 144.05 19.422 Q 144.317 17.788 144.83 16.009 A 36.368 36.368 0 0 1 145.08 15.18 Q 144.934 15.131 144.432 15.122 A 13.848 13.848 0 0 0 144.18 15.12 Q 140.715 15.12 135.237 16.557 A 73.875 73.875 0 0 0 135 16.62 Z M 158.58 8.16 L 158.04 7.08 Q 158.04 6.901 158.455 6.9 A 1.959 1.959 0 0 1 158.46 6.9 Q 159 6.9 160.44 7.5 A 10.284 10.284 0 0 1 160.945 7.716 Q 161.94 8.178 161.94 8.52 A 116.248 116.248 0 0 0 161.771 8.859 Q 161.525 9.355 161.104 10.212 A 1157.53 1157.53 0 0 0 160.83 10.77 Q 160.21 12.033 159.256 13.947 A 1226.013 1226.013 0 0 1 158.64 15.18 A 79.794 79.794 0 0 0 157.743 17.14 Q 156 21.098 156 22.56 A 6.693 6.693 0 0 0 156.025 23.168 Q 156.115 24.151 156.529 24.362 A 0.543 0.543 0 0 0 156.78 24.42 Q 157.649 24.42 159.206 22.651 A 19.138 19.138 0 0 0 159.54 22.26 Q 160.5 21.06 161.34 19.86 Q 162.18 18.66 163.08 17.22 L 168.12 9.06 A 5.16 5.16 0 0 1 168.57 8.438 Q 169.179 7.728 169.839 7.634 A 1.432 1.432 0 0 1 170.04 7.62 Q 171.746 7.62 172.109 8.165 A 0.576 0.576 0 0 1 172.2 8.4 A 0.091 0.091 0 0 0 172.177 8.383 Q 172.068 8.329 171.916 8.719 A 3.156 3.156 0 0 0 171.9 8.76 Q 170.456 11.39 169.234 14.95 A 58.358 58.358 0 0 0 168.84 16.14 Q 167.694 19.787 167.543 21.353 A 4.494 4.494 0 0 0 167.52 21.78 Q 167.52 24.557 168.28 25.227 A 0.821 0.821 0 0 0 168.84 25.44 A 0.63 0.63 0 0 0 169.067 25.385 Q 169.43 25.239 170.106 24.696 A 17.313 17.313 0 0 0 170.58 24.3 A 0.07 0.07 0 0 1 170.639 24.34 Q 170.699 24.436 170.7 24.769 A 3.771 3.771 0 0 1 170.7 24.78 A 1.92 1.92 0 0 1 170.596 25.44 Q 170.268 26.34 168.9 26.34 A 2.999 2.999 0 0 1 166.548 25.271 A 4.332 4.332 0 0 1 166.14 24.72 Q 165.72 23.88 165.45 22.95 A 6.395 6.395 0 0 1 165.256 22.007 Q 165.194 21.538 165.183 21.008 A 11.307 11.307 0 0 1 165.18 20.76 A 12.942 12.942 0 0 1 165.232 19.641 Q 165.298 18.878 165.45 18 Q 165.682 16.659 166.025 15.009 A 131.26 131.26 0 0 1 166.14 14.46 Q 163.8 18.3 162.24 20.67 Q 160.68 23.04 159.84 24.06 A 7.754 7.754 0 0 1 159.051 24.961 Q 158.605 25.391 158.154 25.649 A 2.736 2.736 0 0 1 156.78 26.04 A 3.308 3.308 0 0 1 155.33 25.727 A 3.31 3.31 0 0 1 154.29 24.93 A 4.14 4.14 0 0 1 153.615 23.923 A 3.336 3.336 0 0 1 153.3 22.5 Q 153.3 20.218 155.571 15.046 A 74.826 74.826 0 0 1 155.94 14.22 A 1431.778 1431.778 0 0 0 156.559 12.826 Q 158.354 8.774 158.555 8.239 A 0.419 0.419 0 0 0 158.58 8.16 Z M 26.94 23.46 L 26.4 25.02 A 1.024 1.024 0 0 1 26.165 25.403 Q 25.975 25.591 25.681 25.652 A 1.496 1.496 0 0 1 25.38 25.68 A 2.148 2.148 0 0 1 24.257 25.36 A 2.546 2.546 0 0 1 24.24 25.35 Q 23.7 25.02 23.64 24.66 A 3.356 3.356 0 0 1 23.71 24.096 Q 23.957 22.771 25.085 19.152 A 223.114 223.114 0 0 1 25.62 17.46 A 73.438 73.438 0 0 0 26.486 14.535 Q 27.6 10.44 27.6 8.1 A 2.967 2.967 0 0 0 27.583 7.765 Q 27.542 7.412 27.408 7.226 A 0.476 0.476 0 0 0 27.18 7.05 A 2.091 2.091 0 0 0 26.568 6.927 Q 26.454 6.922 26.34 6.93 Q 25.949 6.958 25.922 6.7 A 0.383 0.383 0 0 1 25.92 6.66 A 0.448 0.448 0 0 1 26.187 6.232 Q 26.41 6.12 26.82 6.12 A 7.152 7.152 0 0 1 28.312 6.261 Q 30.504 6.731 30.795 8.762 A 4.641 4.641 0 0 1 30.84 9.42 Q 30.84 10.441 28.753 16.81 A 350.218 350.218 0 0 1 27.96 19.2 A 73.128 73.128 0 0 1 29.598 16.704 A 60.628 60.628 0 0 1 30.57 15.33 A 98.755 98.755 0 0 1 32.147 13.223 A 81.028 81.028 0 0 1 33.06 12.06 A 35.935 35.935 0 0 1 33.926 11.04 Q 35.65 9.091 36.338 9.06 A 0.488 0.488 0 0 1 36.36 9.06 L 36.39 9.09 Q 36.415 9.115 36.419 9.16 A 0.211 0.211 0 0 1 36.42 9.18 A 0.167 0.167 0 0 1 36.416 9.213 Q 36.4 9.286 36.33 9.45 A 1.148 1.148 0 0 1 36.263 9.58 Q 36.156 9.761 35.94 10.02 A 101.073 101.073 0 0 0 32.277 14.684 Q 28.673 19.583 26.94 23.46 Z M 72.06 23.46 L 71.52 25.02 A 1.024 1.024 0 0 1 71.285 25.403 Q 71.095 25.591 70.801 25.652 A 1.496 1.496 0 0 1 70.5 25.68 A 2.148 2.148 0 0 1 69.377 25.36 A 2.546 2.546 0 0 1 69.36 25.35 Q 68.82 25.02 68.76 24.66 A 3.356 3.356 0 0 1 68.83 24.096 Q 69.077 22.771 70.205 19.152 A 223.114 223.114 0 0 1 70.74 17.46 A 73.438 73.438 0 0 0 71.606 14.535 Q 72.72 10.44 72.72 8.1 A 2.967 2.967 0 0 0 72.703 7.765 Q 72.662 7.412 72.528 7.226 A 0.476 0.476 0 0 0 72.3 7.05 A 2.091 2.091 0 0 0 71.688 6.927 Q 71.574 6.922 71.46 6.93 Q 71.069 6.958 71.042 6.7 A 0.383 0.383 0 0 1 71.04 6.66 A 0.448 0.448 0 0 1 71.307 6.232 Q 71.53 6.12 71.94 6.12 A 7.152 7.152 0 0 1 73.432 6.261 Q 75.624 6.731 75.915 8.762 A 4.641 4.641 0 0 1 75.96 9.42 Q 75.96 10.441 73.873 16.81 A 350.218 350.218 0 0 1 73.08 19.2 A 73.128 73.128 0 0 1 74.718 16.704 A 60.628 60.628 0 0 1 75.69 15.33 A 98.755 98.755 0 0 1 77.267 13.223 A 81.028 81.028 0 0 1 78.18 12.06 A 35.935 35.935 0 0 1 79.046 11.04 Q 80.77 9.091 81.458 9.06 A 0.488 0.488 0 0 1 81.48 9.06 L 81.51 9.09 Q 81.535 9.115 81.539 9.16 A 0.211 0.211 0 0 1 81.54 9.18 A 0.167 0.167 0 0 1 81.536 9.213 Q 81.52 9.286 81.45 9.45 A 1.148 1.148 0 0 1 81.383 9.58 Q 81.276 9.761 81.06 10.02 A 101.073 101.073 0 0 0 77.397 14.684 Q 73.793 19.583 72.06 23.46 Z M 38.64 7.62 L 38.94 7.62 A 7.632 7.632 0 0 1 39.616 7.647 Q 40.942 7.766 41.04 8.4 A 0.091 0.091 0 0 0 41.017 8.383 Q 40.908 8.329 40.756 8.719 A 3.156 3.156 0 0 0 40.74 8.76 A 26.706 26.706 0 0 0 39.774 10.668 A 33.643 33.643 0 0 0 39.15 12.12 A 46.047 46.047 0 0 0 38.248 14.562 A 55.008 55.008 0 0 0 37.74 16.14 Q 36.594 19.787 36.443 21.353 A 4.494 4.494 0 0 0 36.42 21.78 Q 36.42 24.557 37.18 25.227 A 0.821 0.821 0 0 0 37.74 25.44 A 0.719 0.719 0 0 0 37.962 25.4 Q 38.282 25.295 38.769 24.916 A 6.842 6.842 0 0 0 38.79 24.9 A 15.215 15.215 0 0 0 38.939 24.782 Q 39.473 24.353 39.42 24.3 Q 39.588 24.3 39.599 24.717 A 2.306 2.306 0 0 1 39.6 24.78 A 1.92 1.92 0 0 1 39.496 25.44 Q 39.168 26.34 37.8 26.34 A 2.999 2.999 0 0 1 35.448 25.271 A 4.332 4.332 0 0 1 35.04 24.72 A 5.044 5.044 0 0 1 34.479 23.464 Q 34.106 22.238 34.082 20.467 A 18.172 18.172 0 0 1 34.08 20.22 A 14.548 14.548 0 0 1 34.232 18.227 Q 34.568 15.821 35.64 12.48 A 29.198 29.198 0 0 1 36.209 10.859 Q 37.087 8.593 37.926 7.912 A 1.138 1.138 0 0 1 38.64 7.62 Z M 83.76 7.62 L 84.06 7.62 A 7.632 7.632 0 0 1 84.736 7.647 Q 86.062 7.766 86.16 8.4 A 0.091 0.091 0 0 0 86.137 8.383 Q 86.028 8.329 85.876 8.719 A 3.156 3.156 0 0 0 85.86 8.76 A 26.706 26.706 0 0 0 84.894 10.668 A 33.643 33.643 0 0 0 84.27 12.12 A 46.047 46.047 0 0 0 83.368 14.562 A 55.008 55.008 0 0 0 82.86 16.14 Q 81.714 19.787 81.563 21.353 A 4.494 4.494 0 0 0 81.54 21.78 Q 81.54 24.557 82.3 25.227 A 0.821 0.821 0 0 0 82.86 25.44 A 0.719 0.719 0 0 0 83.082 25.4 Q 83.402 25.295 83.889 24.916 A 6.842 6.842 0 0 0 83.91 24.9 A 15.215 15.215 0 0 0 84.059 24.782 Q 84.593 24.353 84.54 24.3 Q 84.708 24.3 84.719 24.717 A 2.306 2.306 0 0 1 84.72 24.78 A 1.92 1.92 0 0 1 84.616 25.44 Q 84.288 26.34 82.92 26.34 A 2.999 2.999 0 0 1 80.568 25.271 A 4.332 4.332 0 0 1 80.16 24.72 A 5.044 5.044 0 0 1 79.599 23.464 Q 79.226 22.238 79.202 20.467 A 18.172 18.172 0 0 1 79.2 20.22 A 14.548 14.548 0 0 1 79.352 18.227 Q 79.688 15.821 80.76 12.48 A 29.198 29.198 0 0 1 81.329 10.859 Q 82.207 8.593 83.046 7.912 A 1.138 1.138 0 0 1 83.76 7.62 Z" vector-effect="non-scaling-stroke"/></g></svg>